<svg xmlns="http://www.w3.org/2000/svg" viewBox="0 0 600 460">
  <defs>
    <linearGradient id="bg2" x1="0" y1="0" x2="1" y2="1">
      <stop offset="0%" stop-color="#0B1628"/>
      <stop offset="100%" stop-color="#0F1E3A"/>
    </linearGradient>
    <filter id="blur2"><feGaussianBlur stdDeviation="22"/></filter>
  </defs>

  <!-- Background -->
  <rect width="600" height="460" fill="url(#bg2)"/>

  <!-- Ambient glow -->
  <ellipse cx="300" cy="190" rx="160" ry="120" fill="#D4A63A" opacity="0.06" filter="url(#blur2)"/>

  <!-- Gold border -->
  <rect x="1" y="1" width="598" height="458" fill="none" stroke="#D4A63A" stroke-width="1.5" opacity="0.25"/>

  <!-- Desktop window frame -->
  <rect x="80" y="70" width="440" height="280" rx="10" fill="#0E1A2F" stroke="#D4A63A" stroke-width="1.5" opacity="1" stroke-opacity="0.4"/>
  <!-- Title bar -->
  <rect x="80" y="70" width="440" height="32" rx="10" fill="#142038"/>
  <rect x="80" y="90" width="440" height="12" fill="#142038"/>
  <!-- Traffic lights -->
  <circle cx="102" cy="86" r="6" fill="#FF6058" opacity="0.7"/>
  <circle cx="120" cy="86" r="6" fill="#FFBD2E" opacity="0.7"/>
  <circle cx="138" cy="86" r="6" fill="#28CA42" opacity="0.7"/>
  <!-- Window title -->
  <text x="300" y="91" text-anchor="middle" font-family="system-ui,-apple-system,sans-serif" font-size="11" fill="#7A90B0" font-weight="600">Gestión Segura — Panel principal</text>

  <!-- Sidebar -->
  <rect x="80" y="102" width="100" height="248" fill="#0A1524"/>
  <!-- Sidebar items -->
  <rect x="88" y="115" width="84" height="24" rx="6" fill="#D4A63A" opacity="0.18"/>
  <text x="130" y="131" text-anchor="middle" font-family="system-ui,-apple-system,sans-serif" font-size="10" fill="#D4A63A" font-weight="700">🔐 Acceso</text>
  <rect x="88" y="146" width="84" height="24" rx="6" fill="#142038"/>
  <text x="130" y="162" text-anchor="middle" font-family="system-ui,-apple-system,sans-serif" font-size="10" fill="#5A7090">📁 Datos</text>
  <rect x="88" y="177" width="84" height="24" rx="6" fill="#142038"/>
  <text x="130" y="193" text-anchor="middle" font-family="system-ui,-apple-system,sans-serif" font-size="10" fill="#5A7090">👤 Usuarios</text>
  <rect x="88" y="208" width="84" height="24" rx="6" fill="#142038"/>
  <text x="130" y="224" text-anchor="middle" font-family="system-ui,-apple-system,sans-serif" font-size="10" fill="#5A7090">📋 Registros</text>

  <!-- Main content area -->
  <!-- Login form mock -->
  <rect x="195" y="115" width="310" height="220" rx="8" fill="#112035"/>
  <!-- Shield icon centered -->
  <!-- Shield path -->
  <path d="M300 135 L322 145 L322 175 Q322 195 300 205 Q278 195 278 175 L278 145 Z" fill="none" stroke="#D4A63A" stroke-width="2.5" opacity="0.8"/>
  <path d="M292 170 L298 176 L310 162" stroke="#D4A63A" stroke-width="2.5" stroke-linecap="round" stroke-linejoin="round" fill="none" opacity="0.9"/>

  <!-- Form fields -->
  <rect x="220" y="218" width="260" height="26" rx="5" fill="#0B1628" stroke="#D4A63A" stroke-width="1" stroke-opacity="0.3"/>
  <text x="232" y="235" font-family="system-ui,-apple-system,sans-serif" font-size="10" fill="#4A6080">Usuario</text>
  <rect x="220" y="252" width="260" height="26" rx="5" fill="#0B1628" stroke="#D4A63A" stroke-width="1" stroke-opacity="0.3"/>
  <text x="232" y="269" font-family="system-ui,-apple-system,sans-serif" font-size="10" fill="#4A6080">••••••••</text>
  <rect x="220" y="286" width="260" height="30" rx="6" fill="#D4A63A" opacity="0.85"/>
  <text x="350" y="305" text-anchor="middle" font-family="system-ui,-apple-system,sans-serif" font-size="12" fill="#0B1628" font-weight="800">INICIAR SESIÓN</text>

  <!-- Status bar -->
  <rect x="80" y="350" width="440" height="20" fill="#0A1524"/>
  <circle cx="96" cy="360" r="5" fill="#28CA42" opacity="0.7"/>
  <text x="108" y="364" font-family="system-ui,-apple-system,sans-serif" font-size="9" fill="#5A7090">Conexión segura · Hash bcrypt · Persistencia en fichero</text>

  <!-- Tech badges -->
  <rect x="140" y="380" width="46" height="22" rx="11" fill="#D4A63A" opacity="0.12"/>
  <text x="163" y="395" text-anchor="middle" font-family="system-ui,-apple-system,sans-serif" font-size="11" fill="#D4A63A" font-weight="700">C#</text>

  <rect x="194" y="380" width="80" height="22" rx="11" fill="#D4A63A" opacity="0.12"/>
  <text x="234" y="395" text-anchor="middle" font-family="system-ui,-apple-system,sans-serif" font-size="11" fill="#D4A63A" font-weight="700">WinForms</text>

  <rect x="282" y="380" width="118" height="22" rx="11" fill="#D4A63A" opacity="0.12"/>
  <text x="341" y="395" text-anchor="middle" font-family="system-ui,-apple-system,sans-serif" font-size="11" fill="#D4A63A" font-weight="700">MetroFramework</text>

  <!-- Title -->
  <text x="300" y="428" text-anchor="middle" font-family="system-ui,-apple-system,sans-serif" font-size="26" fill="#FFFFFF" font-weight="800" letter-spacing="-0.5">Gestión Segura</text>
  <text x="300" y="450" text-anchor="middle" font-family="system-ui,-apple-system,sans-serif" font-size="13.5" fill="#7A90B0">App de escritorio en C# · WinForms</text>
</svg>
